<?xml version="1.0" encoding="UTF-8" standalone="no"?>
<!-- Generator: Gravit.io -->

<svg
   xmlns:dc="http://purl.org/dc/elements/1.1/"
   xmlns:cc="http://creativecommons.org/ns#"
   xmlns:rdf="http://www.w3.org/1999/02/22-rdf-syntax-ns#"
   xmlns:svg="http://www.w3.org/2000/svg"
   xmlns="http://www.w3.org/2000/svg"
   xmlns:sodipodi="http://sodipodi.sourceforge.net/DTD/sodipodi-0.dtd"
   xmlns:inkscape="http://www.inkscape.org/namespaces/inkscape"
   style="isolation:isolate"
   viewBox="0 0 800 800"
   width="800"
   height="800"
   version="1.1"
   id="svg4626"
   sodipodi:docname="ap.svg"
   inkscape:version="0.92.4 (5da689c313, 2019-01-14)">
  <metadata
     id="metadata4630">
    <rdf:RDF>
      <cc:Work
         rdf:about="">
        <dc:format>image/svg+xml</dc:format>
        <dc:type
           rdf:resource="http://purl.org/dc/dcmitype/StillImage" />
      </cc:Work>
    </rdf:RDF>
  </metadata>
  <sodipodi:namedview
     pagecolor="#ffffff"
     bordercolor="#666666"
     borderopacity="1"
     objecttolerance="10"
     gridtolerance="10"
     guidetolerance="10"
     inkscape:pageopacity="0"
     inkscape:pageshadow="2"
     inkscape:window-width="2400"
     inkscape:window-height="1321"
     id="namedview4628"
     showgrid="false"
     inkscape:zoom="0.59"
     inkscape:cx="95.085024"
     inkscape:cy="301.14482"
     inkscape:window-x="9591"
     inkscape:window-y="-9"
     inkscape:window-maximized="1"
     inkscape:current-layer="svg4626" />
  <defs
     id="defs4616">
    <clipPath
       id="_clipPath_mX3wKsHDcCTSQA4E89D0jMeSwaQzMGiZ">
      <rect
         width="800"
         height="800"
         id="rect4613" />
    </clipPath>
  </defs>
  <rect
     y="0"
     x="0"
     id="rect4618"
     style="fill:#00467f"
     height="800"
     width="800" />
  <path
     style="fill:#ffffff;stroke-width:1.19149029"
     inkscape:connector-curvature="0"
     id="path4622"
     d="m 254.10968,409.55251 h -64.48225 c -8.90709,0 -16.12087,7.41675 -16.12087,16.57319 v 132.59276 c 0,9.15765 7.21378,16.5744 16.12087,16.5744 h 64.48225 c 8.90591,0 16.11969,-7.41675 16.11969,-16.5744 V 426.1257 c 0,-9.15644 -7.21378,-16.57319 -16.11969,-16.57319 z M 237.98882,542.14528 H 205.7471 v -99.44519 h 32.24172 z M 737.72608,243.81097 h -64.48227 c -8.90591,0 -16.11968,7.41675 -16.11968,16.5744 v 298.33309 c 0,9.15765 7.21377,16.5744 16.11968,16.5744 h 64.48227 c 8.90706,0 16.12085,-7.41675 16.12085,-16.5744 V 260.38537 c 0,-9.15765 -7.21379,-16.5744 -16.12085,-16.5744 z m -16.1197,298.33431 H 689.36467 V 276.95977 h 32.24171 z M 680.06512,136.78355 c 7.40533,4.72381 16.05976,7.58346 25.42041,7.58346 26.70945,0 48.3614,-22.26109 48.3614,-49.723189 0,-27.460896 -21.65195,-49.721982 -48.3614,-49.721982 -26.71063,0 -48.3614,22.261086 -48.3614,49.721982 0,5.708429 1.12807,11.094299 2.85073,16.201079 l -90.27518,74.25194 c -7.40531,-4.73347 -16.05975,-7.59312 -25.4204,-7.59312 -9.35948,0 -18.01391,2.85965 -25.42041,7.59312 L 428.58371,110.8449 c 1.72383,-5.09591 2.85191,-10.49265 2.85191,-16.201079 0,-27.460896 -21.65195,-49.721982 -48.3614,-49.721982 -26.71065,0 -48.36258,22.261086 -48.36258,49.721982 0,7.665609 1.8237,14.834689 4.8366,21.318739 l -96.9449,99.67229 c -6.30663,-3.09765 -13.27953,-4.97147 -20.73538,-4.97147 -26.70945,0 -48.3614,22.25987 -48.3614,49.72199 0,27.46089 21.65195,49.72197 48.3614,49.72197 26.71064,0 48.36141,-22.26108 48.36141,-49.72197 0,-7.66562 -1.82254,-14.83468 -4.83544,-21.31874 l 96.94488,-99.6723 c 6.30666,3.09765 13.27954,4.97268 20.73541,4.97268 9.35946,0 18.01389,-2.85965 25.42039,-7.59313 l 90.27517,74.25195 c -1.72383,5.10678 -2.8519,10.50352 -2.8519,16.21074 0,27.46211 21.65194,49.7232 48.3614,49.7232 26.71064,0 48.36258,-22.26109 48.36258,-49.7232 0,-5.70722 -1.12925,-11.10396 -2.85192,-16.21074 z m 25.42041,-58.712917 c 8.88593,0 16.12085,7.437274 16.12085,16.573188 0,9.137119 -7.23492,16.574389 -16.12085,16.574389 -8.8871,0 -16.12086,-7.43727 -16.12086,-16.574389 0,-9.135914 7.23376,-16.573188 16.12086,-16.573188 z M 221.86796,276.95977 c -8.88593,0 -16.12086,-7.43849 -16.12086,-16.5744 0,-9.13712 7.23493,-16.5744 16.12086,-16.5744 8.8871,0 16.12086,7.43728 16.12086,16.5744 0,9.13591 -7.23376,16.5744 -16.12086,16.5744 z M 383.07422,111.21821 c -8.88712,0 -16.12087,-7.43727 -16.12087,-16.574389 0,-9.135914 7.23375,-16.573188 16.12087,-16.573188 8.88591,0 16.11967,7.437274 16.11967,16.573188 0,9.137119 -7.23376,16.574389 -16.11967,16.574389 z m 161.20506,132.59276 c -8.88592,0 -16.11968,-7.43727 -16.11968,-16.5744 0,-9.13591 7.23376,-16.57319 16.11968,-16.57319 8.88711,0 16.12086,7.43728 16.12086,16.57319 0,9.13713 -7.23375,16.5744 -16.12086,16.5744 z m -128.96453,0 h -64.48226 c -8.9059,0 -16.12085,7.41675 -16.12085,16.5744 v 298.33309 c 0,9.15765 7.21495,16.5744 16.12085,16.5744 h 64.48226 c 8.90708,0 16.12087,-7.41675 16.12087,-16.5744 V 260.38537 c 0,-9.15765 -7.21379,-16.5744 -16.12087,-16.5744 z M 399.19389,542.14528 H 366.95335 V 276.95977 h 32.24054 z M 576.52101,376.40373 h -64.48228 c -8.90708,0 -16.12085,7.41673 -16.12085,16.57439 v 165.74034 c 0,9.15765 7.21377,16.5744 16.12085,16.5744 h 64.48228 c 8.90589,0 16.12085,-7.41675 16.12085,-16.5744 V 392.97812 c 0,-9.15766 -7.21496,-16.57439 -16.12085,-16.57439 z M 560.40014,542.14528 H 528.1596 V 409.55251 h 32.24054 z" />
  <path
     style="display:inline;isolation:isolate;fill:#75cb2e;stroke-width:0.99987978"
     d="m 57.282885,991.85648 c -5.46171,-1.37032 -10.69385,-5.57571 -13.30398,-10.69323 -9.87354,-19.35838 -16.34668,-99.1535 -28.90984,-356.37453 C 6.3596253,446.46968 3.9892453,399.61781 3.4706053,395.53872 c -0.59555,-4.68396 -2.81490004,-5.78618 -3.79399004,-1.88424 -0.73485996,2.92861 -3.14985996,48.35811 -9.62898996,181.13424 -11.6556703,238.85865 -16.5353803,317.03924 -23.0314103,369 -3.56593,28.52322 -7.34625,39.7285 -15.25195,45.20847 -3.50224,2.42764 -4.9711,2.79153 -11.26814,2.79153 -6.600882,0 -7.580552,-0.27359 -11.082842,-3.09506 -4.50073,-3.62582 -7.71099,-8.87421 -9.82554,-16.06353 -3.53122,-12.00583 -7.27475,-40.93801 -11.55987,-89.34141 -2.17436,-24.56086 -3.04673,-28 -7.10241,-28 -1.157883,0 -3.821363,1.55079 -5.918833,3.44619 -12.26033,11.07914 -34.95498,4.12566 -43.92322,-13.45775 -3.14956,-6.17514 -5.26402,-17.4526 -4.49769,-23.98844 0.7414,-6.32318 2.52152,-13 3.46596,-13 0.35497,0 2.19579,1.61339 4.09073,3.58532 5.52951,5.75416 8.21297,6.68215 21.44101,7.41468 13.28417,0.73564 16.2183,1.75376 21.89085,7.596 1.91865,1.97606 3.964133,3.29879 4.545503,2.9394 0.58136,-0.35939 1.05703,-2.54088 1.05703,-4.84776 0,-5.00921 -15.088783,-229.76734 -17.970793,-267.68764 -2.66541,-35.07046 -4.00096,-50.12266 -4.63601,-52.25 -0.74458,-2.49425 -3.25993,-2.16587 -3.82992,0.5 -0.2646,1.2375 -3.6441,27.9 -7.51001,59.25 -13.03487,105.70454 -19.80708,138.37345 -31.5875,152.37706 -9.43898,11.22028 -25.76035,11.30755 -35.77181,0.19127 -5.62053,-6.2408 -10.97697,-18.15762 -17.78537,-39.56833 -20.62988,-64.87574 -23.12497,-71.5 -26.93122,-71.5 -1.37281,0 -5.5535,3.21056 -11.2859,8.66698 -23.31629,22.19381 -38.66759,26.20438 -73.63591,19.23757 l -15.49628,-3.08736 -254.58302,0.14901 c -231.03691,0.13522 -254.93621,10e-4 -258.40121,-1.44674 -4.8869,-2.04235 -7.1421,-4.11541 -9.4965,-8.72962 -4.542,-8.90138 -0.4462,-20.44266 8.6362,-24.33528 2.4562,-1.05273 51.947,-1.33345 260.93724,-1.48008 l 257.90609,-0.18096 15.83329,3.10324 c 18.18337,3.56384 23.56573,3.78972 29.15589,1.22356 2.19947,-1.00967 10.24664,-7.52184 17.88262,-14.47148 16.39829,-14.92441 21.69425,-17.95894 32.2797,-18.49594 10.82708,-0.54925 16.29073,1.63342 24.42704,9.75834 9.0866,9.07389 15.68015,22.68371 24.97805,51.55758 9.92849,30.83207 9.22027,29.03118 11.41686,29.03118 1.6184,0 2.13234,-1.20241 3.20574,-7.5 5.2381,-30.7316 14.73498,-104.05454 13.90359,-107.34609 -0.65156,-2.57963 -10.24362,-8.55598 -14.96145,-9.32176 -3.18268,-0.5166 -3.37854,-0.35386 -5.14637,4.27626 -2.24416,5.87767 -9.33845,13.17337 -15.7101,16.15614 -2.58554,1.21038 -7.90564,2.73005 -11.82243,3.37705 -24.33725,4.02018 -49.40379,-14.89906 -56.444,-42.6017 -1.4686,-5.77886 -2.10083,-17.5399 -0.94287,-17.5399 0.31449,0 2.45147,1.08377 4.74886,2.40837 5.2451,3.02417 14.36909,4.91846 19.35867,4.01917 2.09761,-0.37805 8.53769,-2.47513 14.3113,-4.66018 14.29968,-5.41176 21.75594,-5.63638 31.28815,-0.94256 6.40403,3.15345 10.27428,6.76306 13.95185,13.01225 l 1.75046,2.97451 -11.74806,-0.50599 c -9.61308,-0.41403 -13.47119,-0.12309 -21.22993,1.60098 -12.30121,2.73346 -18.51139,5.74755 -18.51139,8.98446 0,3.75647 2.61454,4.77288 8.2063,3.19023 2.63481,-0.74574 7.04004,-1.98629 9.78937,-2.75676 12.60261,-3.53176 30.38551,-2.55692 41.93616,2.2989 3.32877,1.39939 7.28323,3.05289 8.78767,3.67445 1.75431,0.72478 3.07631,0.78436 3.68595,0.16614 0.5228,-0.53019 2.57972,-14.01397 4.57091,-29.96397 11.35824,-90.98234 16.61386,-112.79344 28.91652,-120.00502 5.65806,-3.31664 10.44234,-4.07319 15.96954,-2.52529 22.501133,6.30144 26.489293,33.80804 45.080933,310.92614 4.0735,60.71771 7.841432,110.831 8.373172,111.36287 1.91736,1.91782 2.94267,-0.3854 3.56269,-8.00308 0.92951,-11.42028 5.82627,-106.50354 12.08982,-234.75562 13.30407,-272.41333 19.12212,-351.47232 27.51187,-373.84748 4.53768,-12.1018 15.7630402,-17.94608 25.9478399,-13.50926 8.5171101,3.71031 11.8347801,8.61407 14.9526001,22.10098 3.08115,13.32829 7.47819,52.76267 9.56202,85.75577 0.33001,5.225 0.80919,10.51249 1.06485,11.74999 0.74665,3.61411 3.75942,2.64892 7.48919,-2.39928 5.00386,-6.77269 17.1096,-16.03022 27.42925,-20.97576 11.2255,-5.37965 21.925218,-8.14213 35.702015,-9.21761 11.32768,-0.88429 13.78608,-1.91086 13.78608,-5.75673 0,-4.21244 -3.89466,-5.73041 -12.75023,-4.96946 -18.040267,1.55018 -34.206975,5.97395 -45.848925,12.54586 -2.94534,1.66264 -5.58693,3.02299 -5.87019,3.02299 -1.04737,0 -0.46856,-6.7935 1.00034,-11.74102 3.24611,-10.93344 12.7617,-21.23019 23.47862,-25.40602 4.5812,-1.78507 8.52235,-2.25222 23.621125,-2.79982 17.81112,-0.64597 18.23542,-0.71292 24.70256,-3.89745 4.70127,-2.31498 8.27563,-5.11912 12.51763,-9.82037 3.2741,-3.62853 6.4197,-6.28203 7.0127,-5.91551 0.5913,0.36558 1.9758,3.58142 3.0766,7.14633 10.5796,34.26075 -2.8963,71.23076 -31.18327,85.54928 -19.828832,10.03714 -43.006255,6.89415 -55.486945,-7.52435 -1.23356,-1.42509 -2.78272,-2.59108 -3.44257,-2.59108 -2.02318,0 -11.52715,10.52834 -14.89974,16.50567 -1.81557,3.2178 -4.21471,6.04031 -5.5735,6.55704 -1.31214,0.499 -2.62057,1.51942 -2.9076,2.26759 -0.28704,0.74817 0.39207,16.39243 1.50911,34.76501 2.64752,43.54497 5.77977,103.97262 12.56497,242.40469 3.04626,62.15 6.65178,133.25 8.01226,158 1.36048,24.75 2.47526,46.60149 2.4773,48.55887 0.002,1.95738 0.63899,4.42788 1.41544,5.49001 1.36958,1.87345 1.44349,1.85676 2.47423,-0.55887 0.58437,-1.36951 4.00848,-47.04001 7.60917,-101.49001 7.4523,-112.69493 10.42849,-153.92356 14.04052,-194.5 5.892478,-66.19513 11.189108,-100.7168 17.287145,-112.67288 3.78409,-7.4192 12.41342,-13.30042 19.5462,-13.32154 3.87717,-0.0115 9.75096,2.42012 13.40668,5.55002 11.3237,9.69497 15.8267,32.11633 30.2148,150.4444 8.9185,73.34541 15.6385,121.01993 17.4781,123.99724 2.0776,3.36247 3.9588,-0.22295 9.4424,-17.99724 7.5938,-24.61411 11.3088,-34.55518 17.3231,-46.35608 9.097,-17.84988 19.3478,-25.61556 33.8372,-25.63415 11.2733,-0.0145 17.9858,3.66313 33.9195,18.5834 18.2364,17.07652 22.0409,18.40072 41.4119,14.41401 5.3256,-1.09606 12.686,-2.49886 16.3562,-3.11736 4.8429,-0.81611 77.2643,-1.0707 264.0558,-0.92827 252.592,0.19261 257.4534,0.23239 261.1861,2.13711 11.5519,5.89476 12.3957,23.51123 1.4723,30.74058 l -4.0203,2.66076 -255.511,0.13456 -255.5109,0.13456 -16.9925,3.2299 c -14.8076,2.81457 -18.4715,3.16965 -28.4932,2.7614 -17.8224,-0.72604 -26.4881,-4.93454 -44.6157,-21.66764 -6.6076,-6.09926 -10.5361,-9.02854 -11.8741,-8.85385 -3.7998,0.49613 -7.14,9.39885 -26.9999,71.96434 -11.2984,35.59375 -19.9958,47.14326 -35.4851,47.12124 -14.3132,-0.0203 -23.8238,-11.87207 -30.3528,-37.82451 -6.4272,-25.54794 -11.413,-58.31195 -21.57337,-141.76711 -2.72974,-22.42191 -5.23654,-41.20941 -5.57056,-41.75 -1.44065,-2.33159 -3.2922,-0.76884 -3.87096,3.26711 -1.2537,8.74314 -6.83526,85.76195 -14.11341,194.75 -4.13201,61.875 -8.634222,126.9 -10.004897,144.5 -1.37067,17.6 -2.4923,33.4625 -2.4925,35.25 -4e-4,4.05257 1.33268,4.14305 8.280907,0.56203 4.74896,-2.44749 6.55723,-2.74332 20.21194,-3.3067 17.98185,-0.74191 21.89115,-2.11584 29.98025,-10.5367 6.2104,-6.46504 6.3773,-6.37773 8.989,4.70328 7.3698,31.26902 -10.6592,62.47752 -38.59034,66.8007 -10.3799,1.6066 -18.22162,-0.30117 -26.164112,-6.36527 -4.416535,-3.37197 -7.701445,-4.58924 -7.710845,-2.85734 -0.023,4.13297 -5.431888,36.47684 -6.877848,41.12379 -4.85973,15.61802 -14.09318,22.64798 -25.867,19.69397 z m 47.745345,-80.45577 c 4.82214,-1.71283 12.60617,-3.4976 17.99567,-4.12617 13.16903,-1.5359 13.77423,-1.70951 14.55693,-4.17607 0.5141,-1.62059 0.081,-2.68193 -1.6769,-4.10552 -2.0795,-1.68427 -3.3529,-1.83652 -10.37463,-1.24048 -13.13404,1.11491 -30.474677,6.32615 -32.698837,9.82675 -0.97757,1.5385 -1.02606,6.14918 -0.075,7.10074 0.81161,0.81187 0.58146,0.87337 12.272457,-3.27925 z M -95.284367,847.78648 c 1.30199,-3.39373 -0.65217,-6.47071 -5.750713,-9.05496 -11.00087,-5.5759 -30.02599,-8.38155 -32.94877,-4.85898 -2.56847,3.09558 0.12204,4.81179 9.67284,6.17009 10.22715,1.45449 16.21991,3.27999 21.88914,6.66781 4.766503,2.84838 6.365103,3.08938 7.137503,1.07604 z"
     id="path4720"
     inkscape:connector-curvature="0" />
  <path
     id="path4773"
     d="m 432.44526,770.54017 c 3.89586,-1.60224 4.0517,-6.18002 0.37399,-8.09694 -16.79907,-8.86946 -27.2712,-24.74859 -27.2712,-42.88805 V 696.6663 c 0,-30.32778 -26.8037,-54.93333 -59.84082,-54.93333 -2.18172,0 -4.2699,0.22889 -6.38927,0.42916 14.24337,18.25389 26.3362,44.60473 26.3362,81.97083 0,2.51779 -2.24403,4.57777 -4.98673,4.57777 -2.74271,0 -4.98673,-2.05998 -4.98673,-4.57777 0,-71.92833 -48.02849,-102.42775 -66.07422,-109.17998 -5.08026,-1.88833 -10.87734,0.34335 -12.96553,5.00696 -2.11935,4.69222 0.34284,10.01388 5.3919,11.95944 1.12202,0.42916 14.92905,5.97972 28.23739,20.57138 -13.68234,9.26998 -26.74137,26.89442 -24.061,50.0408 3.55305,44.91946 47.43632,76.53472 101.16839,76.53472 15.64587,0 31.85276,-3.08999 45.06763,-8.52611 z"
     inkscape:connector-curvature="0"
     style="fill:#75cb2e;fill-opacity:1;stroke-width:0.29861763" />
</svg>
