<?xml version="1.0" encoding="UTF-8" standalone="no"?>
<!-- Generator: Gravit.io -->

<svg
   xmlns:dc="http://purl.org/dc/elements/1.1/"
   xmlns:cc="http://creativecommons.org/ns#"
   xmlns:rdf="http://www.w3.org/1999/02/22-rdf-syntax-ns#"
   xmlns:svg="http://www.w3.org/2000/svg"
   xmlns="http://www.w3.org/2000/svg"
   xmlns:xlink="http://www.w3.org/1999/xlink"
   xmlns:sodipodi="http://sodipodi.sourceforge.net/DTD/sodipodi-0.dtd"
   xmlns:inkscape="http://www.inkscape.org/namespaces/inkscape"
   style="isolation:isolate"
   viewBox="0 0 800 800"
   width="800"
   height="800"
   version="1.1"
   id="svg3779"
   sodipodi:docname="ap_desktop.svg"
   inkscape:version="0.92.4 (5da689c313, 2019-01-14)">
  <metadata
     id="metadata3783">
    <rdf:RDF>
      <cc:Work
         rdf:about="">
        <dc:format>image/svg+xml</dc:format>
        <dc:type
           rdf:resource="http://purl.org/dc/dcmitype/StillImage" />
      </cc:Work>
    </rdf:RDF>
  </metadata>
  <sodipodi:namedview
     pagecolor="#ffffff"
     bordercolor="#666666"
     borderopacity="1"
     objecttolerance="10"
     gridtolerance="10"
     guidetolerance="10"
     inkscape:pageopacity="0"
     inkscape:pageshadow="2"
     inkscape:window-width="2400"
     inkscape:window-height="1321"
     id="namedview3781"
     showgrid="false"
     inkscape:zoom="0.834386"
     inkscape:cx="384.44092"
     inkscape:cy="523.40561"
     inkscape:window-x="9591"
     inkscape:window-y="-9"
     inkscape:window-maximized="1"
     inkscape:current-layer="g4866" />
  <defs
     id="defs3767">
    <clipPath
       id="_clipPath_1GxosFilLRxgPtQBY4jY6QOu5nVB1saf">
      <rect
         width="800"
         height="800"
         id="rect3764" />
    </clipPath>
    <clipPath
       clipPathUnits="userSpaceOnUse"
       id="clipPath4870">
      <use
         x="0"
         y="0"
         xlink:href="#g4866"
         id="use4872"
         width="100%"
         height="100%" />
    </clipPath>
    <clipPath
       clipPathUnits="userSpaceOnUse"
       id="clipPath4880">
      <rect
         inkscape:label="clip"
         y="110.16779"
         x="34.744061"
         height="492.37628"
         width="735.59662"
         id="rect4882"
         style="display:inline;fill:#ffffff;fill-opacity:1;stroke:#000000;stroke-width:0.99660069;stroke-opacity:1" />
    </clipPath>
  </defs>
  <g
     id="g4868"
     clip-path="url(#clipPath4880)">
    <g
       inkscape:label="Clip"
       id="g4866">
      <rect
         x="19.722"
         y="109.392"
         width="756.51099"
         height="482.26901"
         id="rect3769"
         style="display:inline;opacity:1;fill:#00467f;stroke:#000000;stroke-opacity:1"
         inkscape:label="rect3769" />
      <path
         d="m 335.23754,414.87452 h -48.25671 c -6.66579,0 -12.06442,5.55049 -12.06442,12.40289 v 99.22862 c 0,6.85332 5.39863,12.40381 12.06442,12.40381 h 48.25671 c 6.6649,0 12.06344,-5.55049 12.06344,-12.40381 v -99.22862 c 0,-6.8524 -5.39854,-12.40289 -12.06344,-12.40289 z m -12.06443,99.22861 h -24.12875 v -74.42191 h 24.12875 z m 373.98898,-223.2648 h -48.25668 c -6.66494,0 -12.06353,5.55048 -12.06353,12.40381 v 223.26389 c 0,6.85332 5.39859,12.40381 12.06353,12.40381 h 48.25668 c 6.66576,0 12.06433,-5.55049 12.06433,-12.40381 V 303.24214 c 0,-6.85333 -5.39857,-12.40381 -12.06433,-12.40381 z m -12.06353,223.2648 H 660.96974 V 315.64594 h 24.12882 z M 654.01027,210.74209 c 5.5419,3.53517 12.01869,5.67527 19.02387,5.67527 19.98861,0 36.19228,-16.65957 36.19228,-37.21142 0,-20.55094 -16.20367,-37.2105 -36.19228,-37.2105 -19.98941,0 -36.19226,16.65956 -36.19226,37.2105 0,4.27203 0.84423,8.30265 2.13337,12.12442 l -67.55927,55.568 c -5.54197,-3.54239 -12.01869,-5.68246 -19.0239,-5.68246 -7.00437,0 -13.48116,2.14007 -19.02395,5.68246 l -67.5593,-55.568 c 1.29005,-3.81365 2.13428,-7.85239 2.13428,-12.12442 0,-20.55094 -16.20372,-37.2105 -36.19227,-37.2105 -19.98954,0 -36.19318,16.65956 -36.19318,37.2105 0,5.73672 1.36481,11.10185 3.61956,15.95433 l -72.55075,74.59187 c -4.71967,-2.31821 -9.938,-3.72052 -15.51777,-3.72052 -19.98854,0 -36.19229,16.65864 -36.19229,37.21052 0,20.55094 16.20375,37.21048 36.19229,37.21048 19.98953,0 36.19228,-16.65954 36.19228,-37.21048 0,-5.73674 -1.36392,-11.10185 -3.61868,-15.95435 l 72.55077,-74.59187 c 4.71967,2.31822 9.93799,3.72144 15.51777,3.72144 7.00437,0 13.48108,-2.1401 19.0239,-5.6825 l 67.55936,55.56803 c -1.29015,3.82176 -2.1343,7.86053 -2.1343,12.13164 0,20.55186 16.20366,37.21141 36.19228,37.21141 19.98944,0 36.1931,-16.65955 36.1931,-37.21141 0,-4.27111 -0.84507,-8.30988 -2.13427,-12.13164 z m 19.02387,-43.93905 c 6.64998,0 12.06442,5.56586 12.06442,12.4029 0,6.83794 -5.41444,12.4038 -12.06442,12.4038 -6.65082,0 -12.0644,-5.56586 -12.0644,-12.4038 0,-6.83704 5.41358,-12.4029 12.0644,-12.4029 z M 311.1087,315.64594 c -6.64994,0 -12.06434,-5.56676 -12.06434,-12.4038 0,-6.83797 5.4144,-12.40381 12.06434,-12.40381 6.65084,0 12.06441,5.56584 12.06441,12.40381 0,6.83704 -5.41357,12.4038 -12.06441,12.4038 z m 120.64214,-124.0362 c -6.65087,0 -12.06441,-5.56586 -12.06441,-12.4038 0,-6.83704 5.41354,-12.4029 12.06441,-12.4029 6.64995,0 12.06351,5.56586 12.06351,12.4029 0,6.83794 -5.41356,12.4038 -12.06351,12.4038 z m 120.64124,99.22859 c -6.65003,0 -12.06352,-5.56583 -12.06352,-12.4038 0,-6.83707 5.41349,-12.40291 12.06352,-12.40291 6.65085,0 12.06434,5.56584 12.06434,12.40291 0,6.83797 -5.41349,12.4038 -12.06434,12.4038 z m -96.51337,0 h -48.25663 c -6.66493,0 -12.06442,5.55048 -12.06442,12.40381 v 223.26389 c 0,6.85332 5.39949,12.40381 12.06442,12.40381 h 48.25663 c 6.66579,0 12.0644,-5.55049 12.0644,-12.40381 V 303.24214 c 0,-6.85333 -5.39861,-12.40381 -12.0644,-12.40381 z m -12.06436,223.2648 H 419.68643 V 315.64594 h 24.12792 z M 576.52084,390.06694 h -48.25668 c -6.66582,0 -12.06436,5.55044 -12.06436,12.40379 v 124.0353 c 0,6.85332 5.39854,12.40381 12.06436,12.40381 h 48.25668 c 6.66492,0 12.06434,-5.55049 12.06434,-12.40381 v -124.0353 c 0,-6.85335 -5.39942,-12.40379 -12.06434,-12.40379 z m -12.06442,124.03619 h -24.12786 v -99.22861 h 24.12786 z"
         id="path4622"
         inkscape:connector-curvature="0"
         style="display:inline;isolation:isolate;fill:#ffffff;stroke-width:0.89167696" />
      <path
         inkscape:connector-curvature="0"
         id="path4720"
         d="m 187.938,850.65401 c -4.08738,-1.02554 -8.00297,-4.17265 -9.95632,-8.00255 C 170.59262,828.16428 165.7483,768.4479 156.3464,575.95111 149.82849,442.50227 148.05457,407.43967 147.66643,404.387 c -0.44568,-3.50534 -2.10659,-4.33021 -2.83931,-1.4101 -0.54995,2.1917 -2.35726,36.1898 -7.20605,135.55563 -8.72277,178.75494 -12.3746,237.26303 -17.23605,276.14895 -2.66864,21.34596 -5.49772,29.73162 -11.41411,33.83269 -2.62098,1.81677 -3.72024,2.08916 -8.43276,2.08916 -4.939907,0 -5.673067,-0.20482 -8.294077,-2.31624 -3.36822,-2.71358 -5.77068,-6.64127 -7.35315,-12.02151 -2.64266,-8.98481 -5.444211,-30.63684 -8.651077,-66.86056 -1.627229,-18.38063 -2.280082,-20.95438 -5.315235,-20.95438 -0.866528,0 -2.8598,1.16058 -4.429485,2.57904 -9.17528,8.2913 -26.159307,3.08752 -32.870862,-10.0714 -2.35705,-4.6213 -3.939451,-13.06102 -3.365962,-17.95227 0.554851,-4.73207 1.887053,-9.7288 2.593848,-9.7288 0.265638,0 1.64325,1.20742 3.061376,2.68314 4.138124,4.30625 6.146339,5.00075 16.045839,5.54892 9.941482,0.55053 12.137304,1.31249 16.382467,5.68463 1.435875,1.47884 2.966647,2.46873 3.401726,2.19978 0.435069,-0.26895 0.791058,-1.90152 0.791058,-3.62793 0,-3.74876 -11.292014,-171.95124 -13.448827,-200.32971 -1.994724,-26.24572 -2.99421,-37.51036 -3.469451,-39.10238 -0.557226,-1.86664 -2.439646,-1.62089 -2.866202,0.37419 -0.19803,0.9261 -2.727144,20.87955 -5.620289,44.34098 -9.754908,79.1062 -14.823038,103.55469 -23.639161,114.0346 -7.063872,8.39692 -19.2782971,8.46223 -26.7705881,0.14314 -4.206238,-4.67045 -8.2148569,-13.58865 -13.3100709,-29.6118 -15.438808,-48.55113 -17.306064,-53.50855 -20.154538,-53.50855 -1.027383,0 -4.156087,2.40269 -8.446035,6.48613 -17.449242,16.60921 -28.937724,19.61061 -55.106984,14.39684 l -11.59698,-2.3105 -190.52258,0.11154 c -172.90138,0.10116 -190.78691,7.3e-4 -193.38003,-1.08271 -3.65721,-1.52845 -5.34493,-3.07987 -7.10692,-6.533 -3.39908,-6.66154 -0.33391,-15.2987 6.46309,-18.21183 1.83814,-0.78782 38.87564,-0.99791 195.27792,-1.10763 l 193.00948,-0.13545 11.849174,2.3224 c 13.607913,2.66706 17.635913,2.83612 21.819409,0.91567 1.646048,-0.75562 7.66831,-5.62913 13.382841,-10.83004 12.27199,-11.16901 16.23537,-13.43997 24.157208,-13.84185 8.102668,-0.41102 12.19151,1.22242 18.280475,7.30288 6.800163,6.79064 11.7345959,16.97584 18.69286987,38.58422 7.43019303,23.0738 6.90017303,21.72609 8.54405803,21.72609 1.211154,0 1.5957811,-0.89984 2.3990651,-5.61279 3.92004,-22.99864 11.027245,-77.87143 10.405048,-80.33472 -0.487611,-1.93053 -7.666034,-6.40303 -11.196706,-6.97613 -2.3818321,-0.38659 -2.5284131,-0.26482 -3.8514071,3.20022 -1.679455,4.39869 -6.98862603,9.85857 -11.75698,12.09079 -1.93494,0.90583 -5.9163569,2.04309 -8.8475779,2.5273 -18.213281,3.00858 -36.972369,-11.15002 -42.241054,-31.8819 -1.099054,-4.32473 -1.572216,-13.12634 -0.705612,-13.12634 0.235362,0 1.834597,0.81106 3.553911,1.80235 3.925285,2.2632 10.753412,3.68083 14.487472,3.00784 1.569786,-0.28294 6.389354,-1.85232 10.710161,-3.48759 10.701463,-4.04996 16.281511,-4.21808 23.4151449,-0.70534 4.79259197,2.35995 7.688965,5.06126 10.441176,9.73798 l 1.309983,2.22604 -8.791907,-0.37867 c -7.1941542,-0.30985 -10.0814659,-0.0921 -15.8878659,1.19813 -9.205877,2.04563 -13.853396,4.3013 -13.853396,6.72372 0,2.81122 1.956642,3.57188 6.141373,2.38746 1.9718,-0.5581 5.268541,-1.48649 7.326069,-2.0631 9.4314249,-2.64304 22.7396339,-1.9135 31.383819,1.72046 2.491145,1.04725 5.450543,2.28469 6.576434,2.74984 1.312869,0.54241 2.302226,0.587 2.758451,0.12435 0.391251,-0.3968 1.93059,-10.48765 3.420744,-22.42418 8.500189,-68.08857 12.433338,-84.41135 21.640292,-89.80831 4.234317,-2.48207 7.814737,-3.04825 11.951141,-1.88984 16.839191,4.7158 19.823816,25.30096 33.73726,232.68815 3.0485,45.43939 5.86831,82.94273 6.26625,83.34076 1.434887,1.43524 2.202207,-0.28843 2.666207,-5.98926 0.69562,-8.54663 4.36022,-79.70418 9.04768,-175.68435 9.95638,-203.86629 14.31045,-263.03175 20.58908,-279.77666 3.39588,-9.05666 11.79661,-13.43033 19.41862,-10.10993 6.37396,2.77667 8.85681,6.4465 11.1901,16.53972 2.30584,9.97448 5.59647,39.48606 7.15594,64.17714 0.24697,3.91023 0.60557,7.86726 0.7969,8.79336 0.55877,2.70468 2.81344,1.98236 5.6047,-1.79555 3.74474,-5.06848 12.80433,-11.99654 20.52724,-15.69766 8.40087,-4.02598 16.40823,-6.09333 26.71839,-6.89818 8.47729,-0.66179 10.31708,-1.43004 10.31708,-4.30819 0,-3.15246 -2.91463,-4.28846 -9.54188,-3.71901 -13.50082,1.16013 -25.59952,4.47076 -34.31204,9.38897 -2.20418,1.24428 -4.18109,2.26233 -4.39307,2.26233 -0.78382,0 -0.35066,-5.08405 0.74863,-8.78666 2.4293,-8.18225 9.55049,-15.88806 17.57073,-19.01312 3.42842,-1.3359 6.37786,-1.68549 17.67736,-2.0953 13.32935,-0.48342 13.64686,-0.53354 18.48668,-2.91675 3.51831,-1.73245 6.19324,-3.83097 9.36783,-7.34927 2.45026,-2.71549 4.80432,-4.7013 5.24812,-4.42699 0.4425,0.27359 1.47862,2.68021 2.30242,5.34812 7.91748,25.63972 -2.1675,53.30703 -23.33666,64.02259 -14.83931,7.51151 -32.18465,5.15938 -41.52481,-5.63101 -0.92317,-1.0665 -2.08252,-1.93909 -2.57633,-1.93909 -1.51409,0 -8.62659,7.8791 -11.15055,12.35238 -1.35871,2.40812 -3.15416,4.52039 -4.17104,4.90709 -0.98196,0.37345 -1.96116,1.13709 -2.17597,1.697 -0.21481,0.55991 0.29342,12.26762 1.12939,26.01715 1.98132,32.58779 4.3254,77.81008 9.40325,181.40865 2.27973,46.51128 4.97801,99.72048 5.99615,118.24265 1.01815,18.5222 1.85241,34.87522 1.85394,36.34005 0.002,1.46487 0.47821,3.31371 1.05928,4.10856 1.02496,1.40207 1.08027,1.38955 1.85164,-0.41823 0.43733,-1.02489 2.99981,-35.20338 5.69448,-75.95219 5.5771,-84.33762 7.80437,-115.19196 10.50752,-145.55819 4.40975,-49.53854 8.37361,-75.37356 12.93722,-84.32114 2.83188,-5.5523 9.28983,-9.95364 14.62779,-9.96946 2.90156,-0.008 7.29735,1.81115 10.03319,4.15348 8.47432,7.25543 11.84423,24.03494 22.61186,112.58825 6.67437,54.8896 11.70341,90.56783 13.08011,92.79598 1.55482,2.51635 2.96265,-0.16687 7.06642,-13.46863 5.68297,-18.42048 8.46319,-25.86012 12.96412,-34.69155 6.80792,-13.35834 14.47933,-19.16996 25.32277,-19.18385 8.43662,-0.0108 13.46006,2.74136 25.38437,13.90728 13.64761,12.77957 16.49478,13.77057 30.99148,10.78701 3.98552,-0.82026 9.49383,-1.87008 12.2405,-2.33295 3.6243,-0.61074 57.8224,-0.80127 197.61176,-0.69468 189.03254,0.14414 192.67069,0.17392 195.46414,1.59935 8.64509,4.41146 9.27658,17.59514 1.10182,23.00536 l -3.00867,1.99124 -191.21708,0.10064 -191.21698,0.10075 -12.71669,2.41715 c -11.08159,2.10633 -13.82354,2.37207 -21.32349,2.06655 -13.33778,-0.54336 -19.82292,-3.69286 -33.3891,-16.21544 -4.94494,-4.5645 -7.8849,-6.75669 -8.88623,-6.62597 -2.84366,0.3713 -5.34337,7.03383 -20.20596,53.85605 -8.45539,26.63733 -14.96426,35.28064 -26.55602,35.26415 -10.71158,-0.0152 -17.82906,-8.8847 -22.71516,-28.30675 -4.80993,-19.11934 -8.54116,-43.63897 -16.14489,-106.09441 -2.04284,-16.77992 -3.91887,-30.83995 -4.16882,-31.24449 -1.07815,-1.7449 -2.46381,-0.57539 -2.89693,2.44502 -0.93823,6.54308 -5.11532,64.18174 -10.56207,145.74527 -3.09226,46.30547 -6.4616,94.9683 -7.48737,108.13964 -1.02576,13.17131 -1.86516,25.04235 -1.86532,26.38008 -3.1e-4,3.0328 0.99735,3.10052 6.19719,0.42058 3.55398,-1.83162 4.90724,-2.053 15.12603,-2.47462 13.4571,-0.55524 16.3827,-1.58343 22.43636,-7.88536 4.64765,-4.83826 4.77258,-4.77291 6.72708,3.51979 5.51537,23.40084 -7.97702,46.75636 -28.87987,49.99174 -7.768,1.20233 -13.63654,-0.22537 -19.58046,-4.76361 -3.30523,-2.52348 -5.76355,-3.43445 -5.77058,-2.13834 -0.0173,3.093 -4.06507,27.29823 -5.14718,30.77583 -3.63689,11.68812 -10.54694,16.94909 -19.35812,14.73841 z m 35.73125,-60.21077 c 3.60875,-1.28183 9.43411,-2.6175 13.46744,-3.08791 9.85531,-1.14941 10.30822,-1.27934 10.89397,-3.12525 0.38474,-1.2128 0.0606,-2.00707 -1.25493,-3.07245 -1.55626,-1.26046 -2.50924,-1.37441 -7.76408,-0.92834 -9.82916,0.83437 -22.80638,4.7343 -24.47087,7.35407 -0.73159,1.15135 -0.76788,4.60186 -0.0561,5.31398 0.60739,0.60758 0.43515,0.65359 9.18436,-2.4541 z M 73.761059,742.83619 c 0.974375,-2.53977 -0.488065,-4.84249 -4.30366,-6.77647 -8.232731,-4.17284 -22.470582,-6.27251 -24.657906,-3.63633 -1.922172,2.31666 0.09129,3.601 7.238883,4.61752 7.653687,1.0885 12.138498,2.45465 16.38119,4.99 3.567117,2.13166 4.763457,2.312 5.341493,0.80528 z"
         style="display:inline;isolation:isolate;fill:#75cb2e;stroke-width:0.74828118" />
    </g>
  </g>
  <path
     style="display:inline;fill:#000000"
     inkscape:connector-curvature="0"
     id="path3775"
     d="M 733.333,88.444 H 66.667 C 29.861,88.444 0,118.306 0,155.111 v 400 c 0,36.806 29.861,66.667 66.667,66.667 H 333.333 L 300,755.111 H 200 c -12.222,0 -22.222,10 -22.222,22.222 0,12.223 10,22.223 22.222,22.223 h 400 c 12.222,0 22.222,-10 22.222,-22.223 0,-12.222 -10,-22.222 -22.222,-22.222 H 500 L 466.667,621.778 h 266.666 c 36.806,0 66.667,-29.861 66.667,-66.667 v -400 c 0,-36.805 -29.861,-66.667 -66.667,-66.667 z m -387.5,666.667 22.223,-88.889 h 63.888 l 22.223,88.889 z m 409.723,-200 c 0,12.222 -10,22.222 -22.223,22.222 H 66.667 c -12.223,0 -22.223,-10 -22.223,-22.222 v -400 c 0,-12.222 10,-22.222 22.223,-22.222 h 666.666 c 12.223,0 22.223,10 22.223,22.222 z" />
</svg>
